

<svg xmlns="http://www.w3.org/2000/svg" viewBox="0 0 100 100">
    <symbol width="24" height="24" viewBox="0 0 24 24" id="bike">
      <path d="M5,20.5A3.5,3.5 0 0,1 1.5,17A3.5,3.5 0 0,1 5,13.5A3.5,3.5 0 0,1 8.5,17A3.5,3.5 0 0,1 5,20.5M5,12A5,5 0 0,0 0,17A5,5 0 0,0 5,22A5,5 0 0,0 10,17A5,5 0 0,0 5,12M14.8,10H19V8.2H15.8L13.86,4.93C13.57,4.43 13,4.1 12.4,4.1C11.93,4.1 11.5,4.29 11.2,4.6L7.5,8.29C7.19,8.6 7,9 7,9.5C7,10.13 7.33,10.66 7.85,10.97L11.2,13V18H13V11.5L10.75,9.85L13.07,7.5M19,20.5A3.5,3.5 0 0,1 15.5,17A3.5,3.5 0 0,1 19,13.5A3.5,3.5 0 0,1 22.5,17A3.5,3.5 0 0,1 19,20.5M19,12A5,5 0 0,0 14,17A5,5 0 0,0 19,22A5,5 0 0,0 24,17A5,5 0 0,0 19,12M16,4.8C17,4.8 17.8,4 17.8,3C17.8,2 17,1.2 16,1.2C15,1.2 14.2,2 14.2,3C14.2,4 15,4.8 16,4.8Z"></path>
    </symbol>
  
    <symbol width="24" height="24" viewBox="0 0 24 24" id="bell">
      <path d="M11.5,22C11.64,22 11.77,22 11.9,21.96C12.55,21.82 13.09,21.38 13.34,20.78C13.44,20.54 13.5,20.27 13.5,20H9.5A2,2 0 0,0 11.5,22M18,10.5C18,7.43 15.86,4.86 13,4.18V3.5A1.5,1.5 0 0,0 11.5,2A1.5,1.5 0 0,0 10,3.5V4.18C7.13,4.86 5,7.43 5,10.5V16L3,18V19H20V18L18,16M19.97,10H21.97C21.82,6.79 20.24,3.97 17.85,2.15L16.42,3.58C18.46,5 19.82,7.35 19.97,10M6.58,3.58L5.15,2.15C2.76,3.97 1.18,6.79 1,10H3C3.18,7.35 4.54,5 6.58,3.58Z"></path>
    </symbol>
  
    <symbol width="24" height="24" viewBox="0 0 24 24" id="arrow">
      <path d="M4,11V13H16L10.5,18.5L11.92,19.92L19.84,12L11.92,4.08L10.5,5.5L16,11H4Z"></path>
    </symbol>

    <symbol width="24" height="24" viewBox="0 0 256 512" id="bulletPoint">
      <path d="M246.6 278.6c12.5-12.5 12.5-32.8 0-45.3l-128-128c-9.2-9.2-22.9-11.9-34.9-6.9s-19.8 16.6-19.8 29.6l0 256c0 12.9 7.8 24.6 19.8 29.6s25.7 2.2 34.9-6.9l128-128z"/>
    </symbol>
    
    <symbol width="24" height="24" viewBox="0 0 512 512" id="check">
      <path d="M470.6 105.4c12.5 12.5 12.5 32.8 0 45.3l-256 256c-12.5 12.5-32.8 12.5-45.3 0l-128-128c-12.5-12.5-12.5-32.8 0-45.3s32.8-12.5 45.3 0L192 338.7 425.4 105.4c12.5-12.5 32.8-12.5 45.3 0z"/>
    </symbol>

    <symbol width="24" height="24" viewBox="0 0 512 512" id="comment">
      <path fill="#4C4C4C" d="M512 240c0 114.9-114.6 208-256 208c-37.1 
      0-72.3-6.4-104.1-17.9c-11.9 8.7-31.3 20.6-54.3 30.6C73.6 471.1 44.7 480 16 480c-6.5 0-12.3-3.9-14.8-9.9c-2.5-6-1.1-12.8 3.4-17.4l0 0 0 0 0 0 0 0 
      .3-.3c.3-.3 .7-.7 1.3-1.4c1.1-1.2 2.8-3.1 4.9-5.7c4.1-5 9.6-12.4 
      15.2-21.6c10-16.6 19.5-38.4 21.4-62.9C17.7 326.8 0 285.1 0 240C0 125.1 114.6 32 256 32s256 93.1 256 208z"/>
    </symbol>

    <symbol width="24" height="24" viewBox="0 0 512 512" id="copy">
    <path d="M224 0c-35.3 0-64 28.7-64 64V288c0 35.3 28.7 64 64 64H448c35.3 0 64-28.7 64-64V64c0-35.3-28.7-64-64-64H224zM64 160c-35.3 0-64 28.7-64 64V448c0 35.3 28.7 64 64 64H288c35.3 0 64-28.7 64-64V384H288v64H64V224h64V160H64z"/>
    </symbol>

    <symbol width="24" height="24" viewBox="0 0 512 512" id="eye">
        <g transform="translate(0.000000,512.000000) scale(0.100000,-0.100000)">
      <path d="M2315 3958 c-624 -39 -1249 -315 -1709 -755 -166 -159 -333 -377
      -420 -551 l-46 -92 41 -82 c88 -174 250 -387 426 -559 275 -270 636 -486 1033
      -620 447 -151 992 -184 1485 -90 310 59 665 201 945 376 155 97 360 258 461
      362 152 157 309 370 394 536 l40 76 -44 88 c-80 162 -262 403 -423 559 -360
      351 -903 626 -1408 713 -271 47 -481 58 -775 39z m332 -568 c529 -60 867 -577
      709 -1083 -117 -372 -492 -618 -879 -577 -530 57 -871 575 -713 1083 64 203
      212 381 406 484 111 60 214 87 380 102 8 0 52 -3 97 -9z"/>
      <path d="M2490 3084 c-63 -11 -140 -38 -136 -48 103 -256 177 -448 174 -450
      -1 -2 -100 39 -218 91 -118 52 -219 95 -224 96 -21 5 -48 -109 -49 -208 -2
      -156 43 -267 152 -376 108 -108 216 -152 371 -153 152 0 264 46 371 153 107
      107 153 219 153 371 -1 153 -45 260 -152 369 -69 70 -116 100 -210 132 -54 19
      -184 32 -232 23z"/>
      </g>
    </symbol>

    <symbol width="24" height="24" viewBox="0 0 512 512" id="lightbulb">
      <path d="M281.2 248.9C295.6 228.3 304 203.2 304 176c0-70.7-57.3-128-128-128S48 105.3 48 176c0 27.2 8.4 52.3 22.8 72.9c3.7 5.3 8.1 11.3 12.8 17.7l0 0c12.9 17.7 28.3 38.9 39.8 59.8c10.4 19 15.7 38.8 18.3 57.5H93c-2.2-12-5.9-23.7-11.8-34.5c-9.9-18-22.2-34.9-34.5-51.8l0 0 0 0c-5.2-7.1-10.4-14.2-15.4-21.4C11.6 247.9 0 213.3 0 176C0 78.8 78.8 0 176 0s176 78.8 176 176c0 37.3-11.6 71.9-31.4 100.3c-5 7.2-10.2 14.3-15.4 21.4l0 0 0 0c-12.3 16.8-24.6 33.7-34.5 51.8c-5.9 10.8-9.6 22.5-11.8 34.5H210.4c2.6-18.7 7.9-38.6 18.3-57.5c11.5-20.9 26.9-42.1 39.8-59.8l0 0 0 0 0 0c4.7-6.4 9-12.4 12.7-17.7zM176 128c-26.5 0-48 21.5-48 48c0 8.8-7.2 16-16 16s-16-7.2-16-16c0-44.2 35.8-80 80-80c8.8 0 16 7.2 16 16s-7.2 16-16 16zm0 384c-44.2 0-80-35.8-80-80V416H256v16c0 44.2-35.8 80-80 80z"/>
    </symbol>

    <symbol width="24" height="24" viewBox="0 0 512 512" id="heart">
      <path d="M47.6 300.4L228.3 469.1c7.5 7 17.4 10.9 27.7 10.9s20.2-3.9 27.7-10.9L464.4 300.4c30.4-28.3 47.6-68 47.6-109.5v-5.8c0-69.9-50.5-129.5-119.4-141C347 36.5 300.6 51.4 268 84L256 96 244 84c-32.6-32.6-79-47.5-124.6-39.9C50.5 55.6 0 115.2 0 185.1v5.8c0 41.5 17.2 81.2 47.6 109.5z"/>
    </symbol>
</svg>