

<svg xmlns="http://www.w3.org/2000/svg" viewBox="0 0 100 100">
    <symbol width="24" height="24" viewBox="0 0 24 24" id="bike">
      <path d="M5,20.5A3.5,3.5 0 0,1 1.5,17A3.5,3.5 0 0,1 5,13.5A3.5,3.5 0 0,1 8.5,17A3.5,3.5 0 0,1 5,20.5M5,12A5,5 0 0,0 0,17A5,5 0 0,0 5,22A5,5 0 0,0 10,17A5,5 0 0,0 5,12M14.8,10H19V8.2H15.8L13.86,4.93C13.57,4.43 13,4.1 12.4,4.1C11.93,4.1 11.5,4.29 11.2,4.6L7.5,8.29C7.19,8.6 7,9 7,9.5C7,10.13 7.33,10.66 7.85,10.97L11.2,13V18H13V11.5L10.75,9.85L13.07,7.5M19,20.5A3.5,3.5 0 0,1 15.5,17A3.5,3.5 0 0,1 19,13.5A3.5,3.5 0 0,1 22.5,17A3.5,3.5 0 0,1 19,20.5M19,12A5,5 0 0,0 14,17A5,5 0 0,0 19,22A5,5 0 0,0 24,17A5,5 0 0,0 19,12M16,4.8C17,4.8 17.8,4 17.8,3C17.8,2 17,1.2 16,1.2C15,1.2 14.2,2 14.2,3C14.2,4 15,4.8 16,4.8Z"></path>
    </symbol>
  
    <symbol width="24" height="24" viewBox="0 0 24 24" id="bell">
      <path d="M11.5,22C11.64,22 11.77,22 11.9,21.96C12.55,21.82 13.09,21.38 13.34,20.78C13.44,20.54 13.5,20.27 13.5,20H9.5A2,2 0 0,0 11.5,22M18,10.5C18,7.43 15.86,4.86 13,4.18V3.5A1.5,1.5 0 0,0 11.5,2A1.5,1.5 0 0,0 10,3.5V4.18C7.13,4.86 5,7.43 5,10.5V16L3,18V19H20V18L18,16M19.97,10H21.97C21.82,6.79 20.24,3.97 17.85,2.15L16.42,3.58C18.46,5 19.82,7.35 19.97,10M6.58,3.58L5.15,2.15C2.76,3.97 1.18,6.79 1,10H3C3.18,7.35 4.54,5 6.58,3.58Z"></path>
    </symbol>
  
    <symbol width="24" height="24" viewBox="0 0 24 24" id="arrow">
      <path d="M4,11V13H16L10.5,18.5L11.92,19.92L19.84,12L11.92,4.08L10.5,5.5L16,11H4Z"></path>
    </symbol>

    <symbol width="24" height="24" viewBox="0 0 256 512" id="bulletPoint">
      <path d="M246.6 278.6c12.5-12.5 12.5-32.8 0-45.3l-128-128c-9.2-9.2-22.9-11.9-34.9-6.9s-19.8 16.6-19.8 29.6l0 256c0 12.9 7.8 24.6 19.8 29.6s25.7 2.2 34.9-6.9l128-128z"/>
    </symbol>
    
    <symbol width="24" height="24" viewBox="0 0 512 512" id="check">
      <path d="M470.6 105.4c12.5 12.5 12.5 32.8 0 45.3l-256 256c-12.5 12.5-32.8 12.5-45.3 0l-128-128c-12.5-12.5-12.5-32.8 0-45.3s32.8-12.5 45.3 0L192 338.7 425.4 105.4c12.5-12.5 32.8-12.5 45.3 0z"/>
    </symbol>

    <symbol width="24" height="24" viewBox="0 0 512 512" id="comment">
      <path fill="#4C4C4C" d="M512 240c0 114.9-114.6 208-256 208c-37.1 
      0-72.3-6.4-104.1-17.9c-11.9 8.7-31.3 20.6-54.3 30.6C73.6 471.1 44.7 480 16 480c-6.5 0-12.3-3.9-14.8-9.9c-2.5-6-1.1-12.8 3.4-17.4l0 0 0 0 0 0 0 0 
      .3-.3c.3-.3 .7-.7 1.3-1.4c1.1-1.2 2.8-3.1 4.9-5.7c4.1-5 9.6-12.4 
      15.2-21.6c10-16.6 19.5-38.4 21.4-62.9C17.7 326.8 0 285.1 0 240C0 125.1 114.6 32 256 32s256 93.1 256 208z"/>
    </symbol>

    <symbol width="24" height="24" viewBox="0 0 512 512" id="copy">
    <path d="M224 0c-35.3 0-64 28.7-64 64V288c0 35.3 28.7 64 64 64H448c35.3 0 64-28.7 64-64V64c0-35.3-28.7-64-64-64H224zM64 160c-35.3 0-64 28.7-64 64V448c0 35.3 28.7 64 64 64H288c35.3 0 64-28.7 64-64V384H288v64H64V224h64V160H64z"/>
    </symbol>

    <symbol width="24" height="24" viewBox="0 0 512 512" id="eye">
        <g transform="translate(0.000000,512.000000) scale(0.100000,-0.100000)">
      <path d="M2315 3958 c-624 -39 -1249 -315 -1709 -755 -166 -159 -333 -377
      -420 -551 l-46 -92 41 -82 c88 -174 250 -387 426 -559 275 -270 636 -486 1033
      -620 447 -151 992 -184 1485 -90 310 59 665 201 945 376 155 97 360 258 461
      362 152 157 309 370 394 536 l40 76 -44 88 c-80 162 -262 403 -423 559 -360
      351 -903 626 -1408 713 -271 47 -481 58 -775 39z m332 -568 c529 -60 867 -577
      709 -1083 -117 -372 -492 -618 -879 -577 -530 57 -871 575 -713 1083 64 203
      212 381 406 484 111 60 214 87 380 102 8 0 52 -3 97 -9z"/>
      <path d="M2490 3084 c-63 -11 -140 -38 -136 -48 103 -256 177 -448 174 -450
      -1 -2 -100 39 -218 91 -118 52 -219 95 -224 96 -21 5 -48 -109 -49 -208 -2
      -156 43 -267 152 -376 108 -108 216 -152 371 -153 152 0 264 46 371 153 107
      107 153 219 153 371 -1 153 -45 260 -152 369 -69 70 -116 100 -210 132 -54 19
      -184 32 -232 23z"/>
      </g>
    </symbol>

    <symbol width="24" height="24" viewBox="0 0 512 512" id="lightbulb">
      <path d="M281.2 248.9C295.6 228.3 304 203.2 304 176c0-70.7-57.3-128-128-128S48 105.3 48 176c0 27.2 8.4 52.3 22.8 72.9c3.7 5.3 8.1 11.3 12.8 17.7l0 0c12.9 17.7 28.3 38.9 39.8 59.8c10.4 19 15.7 38.8 18.3 57.5H93c-2.2-12-5.9-23.7-11.8-34.5c-9.9-18-22.2-34.9-34.5-51.8l0 0 0 0c-5.2-7.1-10.4-14.2-15.4-21.4C11.6 247.9 0 213.3 0 176C0 78.8 78.8 0 176 0s176 78.8 176 176c0 37.3-11.6 71.9-31.4 100.3c-5 7.2-10.2 14.3-15.4 21.4l0 0 0 0c-12.3 16.8-24.6 33.7-34.5 51.8c-5.9 10.8-9.6 22.5-11.8 34.5H210.4c2.6-18.7 7.9-38.6 18.3-57.5c11.5-20.9 26.9-42.1 39.8-59.8l0 0 0 0 0 0c4.7-6.4 9-12.4 12.7-17.7zM176 128c-26.5 0-48 21.5-48 48c0 8.8-7.2 16-16 16s-16-7.2-16-16c0-44.2 35.8-80 80-80c8.8 0 16 7.2 16 16s-7.2 16-16 16zm0 384c-44.2 0-80-35.8-80-80V416H256v16c0 44.2-35.8 80-80 80z"/>
    </symbol>

    <symbol width="24" height="24" viewBox="0 0 512 512" id="heart">
      <path d="M47.6 300.4L228.3 469.1c7.5 7 17.4 10.9 27.7 10.9s20.2-3.9 27.7-10.9L464.4 300.4c30.4-28.3 47.6-68 47.6-109.5v-5.8c0-69.9-50.5-129.5-119.4-141C347 36.5 300.6 51.4 268 84L256 96 244 84c-32.6-32.6-79-47.5-124.6-39.9C50.5 55.6 0 115.2 0 185.1v5.8c0 41.5 17.2 81.2 47.6 109.5z"/>
    </symbol>
    
    <symbol width="24" height="24" viewBox="0 0 512 512" id="angry">
      <path d="M0 256a256 256 0 1 1 512 0A256 256 0 1 1 0 256zM338.7 395.9c6.6-5.9 7.1-16 1.2-22.6C323.8 355.4 295.7 336 256 336s-67.8 19.4-83.9 37.3c-5.9 6.6-5.4 16.7 1.2 22.6s16.7 5.4 22.6-1.2c11.7-13 31.6-26.7 60.1-26.7s48.4 13.7 60.1 26.7c5.9 6.6 16 7.1 22.6 1.2zM176.4 272c17.7 0 32-14.3 32-32c0-1.5-.1-3-.3-4.4l10.9 3.6c8.4 2.8 17.4-1.7 20.2-10.1s-1.7-17.4-10.1-20.2l-96-32c-8.4-2.8-17.4 1.7-20.2 10.1s1.7 17.4 10.1 20.2l30.7 10.2c-5.8 5.8-9.3 13.8-9.3 22.6c0 17.7 14.3 32 32 32zm192-32c0-8.9-3.6-17-9.5-22.8l30.2-10.1c8.4-2.8 12.9-11.9 10.1-20.2s-11.9-12.9-20.2-10.1l-96 32c-8.4 2.8-12.9 11.9-10.1 20.2s11.9 12.9 20.2 10.1l11.7-3.9c-.2 1.5-.3 3.1-.3 4.7c0 17.7 14.3 32 32 32s32-14.3 32-32z"/>
    </symbol>
    
    <symbol width="24" height="24" viewBox="0 0 512 512" id="disgusted">
      <path d="M256 512A256 256 0 1 0 256 0a256 256 0 1 0 0 512zm96-112h-8V360l55.3 0c-3.8 22.7-23.6 40-47.3 40zm47.3-56L344 344V304h8c23.8 0 43.5 17.3 47.3 40zM328 344H264V304h64v40zm0 56H264V360h64v40zm-80-96v40l-64 0V304h64zm0 56v40H184V360l64 0zm-80-16H112.7c3.8-22.7 23.6-40 47.3-40h8v40zm0 56h-8c-23.8 0-43.5-17.3-47.3-40H168v40zM144.4 208a32 32 0 1 1 64 0 32 32 0 1 1 -64 0zm192-32a32 32 0 1 1 0 64 32 32 0 1 1 0-64z"/>
    </symbol>

    <symbol width="24" height="24" viewBox="0 0 512 512" id="caret-down">
      <path d="M137.4 374.6c12.5 12.5 32.8 12.5 45.3 0l128-128c9.2-9.2 11.9-22.9 6.9-34.9s-16.6-19.8-29.6-19.8L32 192c-12.9 0-24.6 7.8-29.6 19.8s-2.2 25.7 6.9 34.9l128 128z"/>
    </symbol>
    
    <symbol width="24" height="24" viewBox="0 0 512 512" id="caret-up">
      <path d="M182.6 137.4c-12.5-12.5-32.8-12.5-45.3 0l-128 128c-9.2 9.2-11.9 22.9-6.9 34.9s16.6 19.8 29.6 19.8H288c12.9 0 24.6-7.8 29.6-19.8s2.2-25.7-6.9-34.9l-128-128z"/>
    </symbol>

    <symbol width="24" height="24" viewBox="0 0 512 512" id="trash">
      <path d="M170.5 51.6L151.5 80h145l-19-28.4c-1.5-2.2-4-3.6-6.7-3.6H177.1c-2.7 0-5.2 1.3-6.7 3.6zm147-26.6L354.2 80H368h48 8c13.3 0 24 10.7 24 24s-10.7 24-24 24h-8V432c0 44.2-35.8 80-80 80H112c-44.2 0-80-35.8-80-80V128H24c-13.3 0-24-10.7-24-24S10.7 80 24 80h8H80 93.8l36.7-55.1C140.9 9.4 158.4 0 177.1 0h93.7c18.7 0 36.2 9.4 46.6 24.9zM80 128V432c0 17.7 14.3 32 32 32H336c17.7 0 32-14.3 32-32V128H80zm80 64V400c0 8.8-7.2 16-16 16s-16-7.2-16-16V192c0-8.8 7.2-16 16-16s16 7.2 16 16zm80 0V400c0 8.8-7.2 16-16 16s-16-7.2-16-16V192c0-8.8 7.2-16 16-16s16 7.2 16 16zm80 0V400c0 8.8-7.2 16-16 16s-16-7.2-16-16V192c0-8.8 7.2-16 16-16s16 7.2 16 16z"/>
    </symbol>

    <symbol width="24" height="24" viewBox="0 0 512 512" id="github">
      <path d="M165.9 397.4c0 2-2.3 3.6-5.2 3.6-3.3.3-5.6-1.3-5.6-3.6 0-2 2.3-3.6 5.2-3.6 3-.3 5.6 1.3 5.6 3.6zm-31.1-4.5c-.7 2 1.3 4.3 4.3 4.9 2.6 1 5.6 0 6.2-2s-1.3-4.3-4.3-5.2c-2.6-.7-5.5.3-6.2 2.3zm44.2-1.7c-2.9.7-4.9 2.6-4.6 4.9.3 2 2.9 3.3 5.9 2.6 2.9-.7 4.9-2.6 4.6-4.6-.3-1.9-3-3.2-5.9-2.9zM244.8 8C106.1 8 0 113.3 0 252c0 110.9 69.8 205.8 169.5 239.2 12.8 2.3 17.3-5.6 17.3-12.1 0-6.2-.3-40.4-.3-61.4 0 0-70 15-84.7-29.8 0 0-11.4-29.1-27.8-36.6 0 0-22.9-15.7 1.6-15.4 0 0 24.9 2 38.6 25.8 21.9 38.6 58.6 27.5 72.9 20.9 2.3-16 8.8-27.1 16-33.7-55.9-6.2-112.3-14.3-112.3-110.5 0-27.5 7.6-41.3 23.6-58.9-2.6-6.5-11.1-33.3 2.6-67.9 20.9-6.5 69 27 69 27 20-5.6 41.5-8.5 62.8-8.5s42.8 2.9 62.8 8.5c0 0 48.1-33.6 69-27 13.7 34.7 5.2 61.4 2.6 67.9 16 17.7 25.8 31.5 25.8 58.9 0 96.5-58.9 104.2-114.8 110.5 9.2 7.9 17 22.9 17 46.4 0 33.7-.3 75.4-.3 83.6 0 6.5 4.6 14.4 17.3 12.1C428.2 457.8 496 362.9 496 252 496 113.3 383.5 8 244.8 8zM97.2 352.9c-1.3 1-1 3.3.7 5.2 1.6 1.6 3.9 2.3 5.2 1 1.3-1 1-3.3-.7-5.2-1.6-1.6-3.9-2.3-5.2-1zm-10.8-8.1c-.7 1.3.3 2.9 2.3 3.9 1.6 1 3.6.7 4.3-.7.7-1.3-.3-2.9-2.3-3.9-2-.6-3.6-.3-4.3.7zm32.4 35.6c-1.6 1.3-1 4.3 1.3 6.2 2.3 2.3 5.2 2.6 6.5 1 1.3-1.3.7-4.3-1.3-6.2-2.2-2.3-5.2-2.6-6.5-1zm-11.4-14.7c-1.6 1-1.6 3.6 0 5.9 1.6 2.3 4.3 3.3 5.6 2.3 1.6-1.3 1.6-3.9 0-6.2-1.4-2.3-4-3.3-5.6-2z"/>
    </symbol>

    <symbol width="24" height="24" viewBox="0 0 512 512" id="twitter">
      <path d="M459.37 151.716c.325 4.548.325 9.097.325 13.645 0 138.72-105.583 298.558-298.558 298.558-59.452 0-114.68-17.219-161.137-47.106 8.447.974 16.568 1.299 25.34 1.299 49.055 0 94.213-16.568 130.274-44.832-46.132-.975-84.792-31.188-98.112-72.772 6.498.974 12.995 1.624 19.818 1.624 9.421 0 18.843-1.3 27.614-3.573-48.081-9.747-84.143-51.98-84.143-102.985v-1.299c13.969 7.797 30.214 12.67 47.431 13.319-28.264-18.843-46.781-51.005-46.781-87.391 0-19.492 5.197-37.36 14.294-52.954 51.655 63.675 129.3 105.258 216.365 109.807-1.624-7.797-2.599-15.918-2.599-24.04 0-57.828 46.782-104.934 104.934-104.934 30.213 0 57.502 12.67 76.67 33.137 23.715-4.548 46.456-13.32 66.599-25.34-7.798 24.366-24.366 44.833-46.132 57.827 21.117-2.273 41.584-8.122 60.426-16.243-14.292 20.791-32.161 39.308-52.628 54.253z"/>
    </symbol>

    <symbol width="24" height="24" viewBox="0 0 576 512" id="youtube">
      <path d="M549.655 124.083c-6.281-23.65-24.787-42.276-48.284-48.597C458.781 64 288 64 288 64S117.22 64 74.629 75.486c-23.497 6.322-42.003 24.947-48.284 48.597-11.412 42.867-11.412 132.305-11.412 132.305s0 89.438 11.412 132.305c6.281 23.65 24.787 41.5 48.284 47.821C117.22 448 288 448 288 448s170.78 0 213.371-11.486c23.497-6.321 42.003-24.171 48.284-47.821 11.412-42.867 11.412-132.305 11.412-132.305s0-89.438-11.412-132.305zm-317.51 213.508V175.185l142.739 81.205-142.739 81.201z"/>
    </symbol>

    <symbol width="24" height="24" viewBox="0 0 448 512" id="linkedIn">
      <path d="M416 32H31.9C14.3 32 0 46.5 0 64.3v383.4C0 465.5 14.3 480 31.9 480H416c17.6 0 32-14.5 32-32.3V64.3c0-17.8-14.4-32.3-32-32.3zM135.4 416H69V202.2h66.5V416zm-33.2-243c-21.3 0-38.5-17.3-38.5-38.5S80.9 96 102.2 96c21.2 0 38.5 17.3 38.5 38.5 0 21.3-17.2 38.5-38.5 38.5zm282.1 243h-66.4V312c0-24.8-.5-56.7-34.5-56.7-34.6 0-39.9 27-39.9 54.9V416h-66.4V202.2h63.7v29.2h.9c8.9-16.8 30.6-34.5 62.9-34.5 67.2 0 79.7 44.3 79.7 101.9V416z"/>
    </symbol>

</svg>